<svg width="958" height="117" viewBox="0 0 958 117" fill="none" xmlns="http://www.w3.org/2000/svg">
<path d="M25.2583 21.5538H0V1.68389H25.2583V21.5538ZM25.2583 114.504H0V30.1416H25.2583V114.504Z" fill="black"/>
<path d="M57.0023 114.504H31.7439V30.1416H55.15V56.0735H56.6655C58.8546 41.9288 68.9579 28.4577 91.0168 28.4577C114.086 28.4577 125.031 43.2759 125.031 61.9671V114.504H99.7731V70.3866C99.7731 56.9154 94.2162 51.1902 78.7244 51.1902C62.7275 51.1902 57.0023 57.589 57.0023 71.9021V114.504Z" fill="black"/>
<path d="M190.515 114.504H169.635C149.933 114.504 137.978 105.243 137.978 84.0261V51.0218H124.675V30.1416H137.978V13.8079H163.236V30.1416H190.515V51.0218H163.236V81.1635C163.236 89.5829 166.435 91.7719 175.36 91.7719H190.515V114.504Z" fill="black"/>
<path d="M238.031 116.188C209.91 116.188 190.714 102.38 190.714 72.4072C190.714 45.465 209.742 28.4577 237.526 28.4577C265.141 28.4577 283.496 42.9392 283.496 69.3762C283.496 72.4072 283.159 74.5963 282.822 77.4589H214.12C214.793 90.4248 220.855 95.9817 237.189 95.9817C252.176 95.9817 257.396 92.1087 257.396 84.868V83.1841H282.654V85.0364C282.654 103.391 264.805 116.188 238.031 116.188ZM237.021 48.1592C222.034 48.1592 215.635 53.2109 214.456 64.1562H259.248C258.574 53.0425 251.839 48.1592 237.021 48.1592Z" fill="black"/>
<path d="M312.73 114.504H287.471V30.1416H310.878V52.5373H312.393C314.75 38.8978 323.675 28.4577 340.682 28.4577C359.542 28.4577 367.288 41.4237 367.288 57.9258V71.9021H342.029V63.1458C342.029 53.8844 338.325 49.8431 328.053 49.8431C316.771 49.8431 312.73 55.0632 312.73 65.6717V114.504Z" fill="black"/>
<path d="M394.957 114.504H369.699V30.1416H393.105V56.0735H394.621C396.81 41.9288 406.913 28.4577 428.972 28.4577C452.041 28.4577 462.987 43.2759 462.987 61.9671V114.504H437.728V70.3866C437.728 56.9154 432.171 51.1902 416.68 51.1902C400.683 51.1902 394.957 57.589 394.957 71.9021V114.504Z" fill="black"/>
<path d="M520.051 116.188C483.174 116.188 466.503 101.202 466.503 76.2802V73.5859H493.277V76.2802C493.277 87.7306 496.476 91.9403 518.872 91.9403C540.089 91.9403 546.656 88.5726 546.656 78.806C546.656 70.3866 541.268 66.8504 530.659 66.8504H498.16V46.1386H528.302C538.068 46.1386 542.446 42.6024 542.446 35.5301C542.446 27.6158 537.732 24.248 518.535 24.248C498.329 24.248 493.277 28.4577 493.277 39.9082V40.7501H466.503V39.9082C466.503 16.1653 484.015 0 520.724 0C550.866 0 567.536 10.2717 567.536 30.1416C567.536 43.1076 559.79 51.8638 545.141 53.7161V55.5683C561.643 57.9258 572.42 66.3452 572.42 82.8473C572.42 104.738 552.887 116.188 520.051 116.188Z" fill="black"/>
<path d="M606.08 114.504H573.581V85.0364H606.08V114.504Z" fill="black"/>
<path d="M656.08 116.188C627.117 116.188 608.594 99.0127 608.594 72.4072C608.594 45.465 627.117 28.4577 656.08 28.4577C683.191 28.4577 701.713 42.9392 701.713 64.8297V67.1872H676.623V65.8401C676.623 55.0632 668.709 51.1902 655.575 51.1902C640.588 51.1902 633.684 56.7471 633.684 72.4072C633.684 87.899 640.588 93.4558 655.575 93.4558C668.709 93.4558 676.623 89.5829 676.623 78.806V77.4589H701.713V79.8163C701.713 101.539 683.191 116.188 656.08 116.188Z" fill="black"/>
<path d="M731.104 114.504H705.846V1.68389H731.104V55.9051H732.451C735.145 41.5921 745.08 28.4577 766.634 28.4577C789.366 28.4577 800.48 43.2759 800.48 62.8091V114.504H775.222V70.3866C775.222 56.2419 769.16 51.1902 753.331 51.1902C736.324 51.1902 731.104 58.0942 731.104 72.2388V114.504Z" fill="black"/>
<path d="M832.423 116.188C814.237 116.188 803.291 107.769 803.291 93.6242C803.291 81.1634 812.553 73.4176 830.57 71.5653L866.774 67.8607V64.6613C866.774 53.7161 861.891 50.6851 848.42 50.6851C835.622 50.6851 830.402 54.0528 830.402 63.651V64.3246H804.975V63.8194C804.975 42.9392 822.488 28.4577 850.272 28.4577C878.393 28.4577 891.696 42.9392 891.696 64.9981V114.504H868.121V95.1397H866.774C862.901 108.274 851.114 116.188 832.423 116.188ZM828.718 91.9403C828.718 96.4868 832.254 98.3391 839.663 98.3391C856.839 98.3391 866.1 94.2978 866.774 82.3422L837.474 85.71C831.412 86.2151 828.718 87.899 828.718 91.9403Z" fill="black"/>
<path d="M957.204 114.504H936.324C916.622 114.504 904.667 105.243 904.667 84.0261V51.0218H891.364V30.1416H904.667V13.8079H929.925V30.1416H957.204V51.0218H929.925V81.1635C929.925 89.5829 933.124 91.7719 942.049 91.7719H957.204V114.504Z" fill="black"/>
</svg>
